<mxfile host="app.diagrams.net" modified="2023-05-06T22:46:35.509Z" agent="Mozilla/5.0 (Macintosh; Intel Mac OS X 10_15_7) AppleWebKit/537.36 (KHTML, like Gecko) Chrome/112.0.0.0 Safari/537.36" etag="qj_mPwWbyMNuKeZBhJ_7" version="21.2.7" type="github">
  <diagram name="PÃ¡gina-1" id="_fNHtFV3CK96P10iVMdK">
    <mxGraphModel dx="2110" dy="1994" grid="1" gridSize="10" guides="1" tooltips="1" connect="1" arrows="1" fold="1" page="1" pageScale="1" pageWidth="827" pageHeight="1169" math="0" shadow="0">
      <root>
        <mxCell id="0" />
        <mxCell id="1" parent="0" />
        <mxCell id="taQI1fnk0kbfQph8SLSN-5" value="BDD usuarios" style="whiteSpace=wrap;html=1;aspect=fixed;" parent="1" vertex="1">
          <mxGeometry x="-490" y="-90" width="80" height="80" as="geometry" />
        </mxCell>
        <mxCell id="taQI1fnk0kbfQph8SLSN-6" value="BDD comercios" style="whiteSpace=wrap;html=1;aspect=fixed;" parent="1" vertex="1">
          <mxGeometry x="-490" y="80" width="80" height="80" as="geometry" />
        </mxCell>
        <mxCell id="C0ftnlB4VA3GDaE6zfBf-3" value="" style="endArrow=classic;html=1;rounded=0;entryX=1;entryY=0.5;entryDx=0;entryDy=0;exitX=0;exitY=0.5;exitDx=0;exitDy=0;" parent="1" source="taQI1fnk0kbfQph8SLSN-6" target="C0ftnlB4VA3GDaE6zfBf-13" edge="1">
          <mxGeometry width="50" height="50" relative="1" as="geometry">
            <mxPoint x="-530" y="80" as="sourcePoint" />
            <mxPoint x="-280" y="100" as="targetPoint" />
          </mxGeometry>
        </mxCell>
        <mxCell id="C0ftnlB4VA3GDaE6zfBf-5" value="" style="endArrow=classic;html=1;rounded=0;exitX=0;exitY=0.5;exitDx=0;exitDy=0;entryX=1;entryY=0.5;entryDx=0;entryDy=0;" parent="1" source="C0ftnlB4VA3GDaE6zfBf-7" edge="1">
          <mxGeometry width="50" height="50" relative="1" as="geometry">
            <mxPoint x="-330" y="320" as="sourcePoint" />
            <mxPoint x="-259.99999999999955" y="290" as="targetPoint" />
          </mxGeometry>
        </mxCell>
        <mxCell id="WkCDZKJzOO0LiTBJhFqM-251" value="" style="edgeStyle=orthogonalEdgeStyle;rounded=0;orthogonalLoop=1;jettySize=auto;html=1;" edge="1" parent="1" source="C0ftnlB4VA3GDaE6zfBf-6" target="C0ftnlB4VA3GDaE6zfBf-14">
          <mxGeometry relative="1" as="geometry" />
        </mxCell>
        <mxCell id="C0ftnlB4VA3GDaE6zfBf-6" value="BDD transacciones" style="whiteSpace=wrap;html=1;aspect=fixed;" parent="1" vertex="1">
          <mxGeometry x="-490" y="250" width="80" height="80" as="geometry" />
        </mxCell>
        <mxCell id="C0ftnlB4VA3GDaE6zfBf-7" value="BDD catalogo de productos" style="whiteSpace=wrap;html=1;aspect=fixed;" parent="1" vertex="1">
          <mxGeometry x="-160" y="240" width="80" height="80" as="geometry" />
        </mxCell>
        <mxCell id="C0ftnlB4VA3GDaE6zfBf-8" value="" style="endArrow=classic;html=1;rounded=0;exitX=1;exitY=0.5;exitDx=0;exitDy=0;entryX=0;entryY=0.5;entryDx=0;entryDy=0;" parent="1" source="taQI1fnk0kbfQph8SLSN-6" edge="1">
          <mxGeometry width="50" height="50" relative="1" as="geometry">
            <mxPoint x="-330" y="150" as="sourcePoint" />
            <mxPoint x="-339.99999999999955" y="120" as="targetPoint" />
          </mxGeometry>
        </mxCell>
        <mxCell id="C0ftnlB4VA3GDaE6zfBf-9" value="" style="endArrow=classic;html=1;rounded=0;exitX=0.5;exitY=1;exitDx=0;exitDy=0;entryX=0.5;entryY=0;entryDx=0;entryDy=0;" parent="1" source="taQI1fnk0kbfQph8SLSN-6" target="C0ftnlB4VA3GDaE6zfBf-6" edge="1">
          <mxGeometry width="50" height="50" relative="1" as="geometry">
            <mxPoint x="-286" y="174" as="sourcePoint" />
            <mxPoint x="-380" y="230" as="targetPoint" />
          </mxGeometry>
        </mxCell>
        <mxCell id="C0ftnlB4VA3GDaE6zfBf-10" value="BDD catalogo de servicos" style="whiteSpace=wrap;html=1;aspect=fixed;" parent="1" vertex="1">
          <mxGeometry x="-340" y="80" width="80" height="80" as="geometry" />
        </mxCell>
        <mxCell id="C0ftnlB4VA3GDaE6zfBf-11" value="" style="endArrow=classic;startArrow=classic;html=1;rounded=0;exitX=0.25;exitY=0;exitDx=0;exitDy=0;entryX=0.25;entryY=1;entryDx=0;entryDy=0;" parent="1" source="taQI1fnk0kbfQph8SLSN-6" target="taQI1fnk0kbfQph8SLSN-5" edge="1">
          <mxGeometry width="50" height="50" relative="1" as="geometry">
            <mxPoint x="-330" y="150" as="sourcePoint" />
            <mxPoint x="-280" y="100" as="targetPoint" />
          </mxGeometry>
        </mxCell>
        <mxCell id="C0ftnlB4VA3GDaE6zfBf-13" value="BDD catalogo de tipos de pago" style="whiteSpace=wrap;html=1;aspect=fixed;" parent="1" vertex="1">
          <mxGeometry x="-650" y="80" width="80" height="80" as="geometry" />
        </mxCell>
        <mxCell id="C0ftnlB4VA3GDaE6zfBf-14" value="BDD de inventario&amp;nbsp;" style="whiteSpace=wrap;html=1;aspect=fixed;" parent="1" vertex="1">
          <mxGeometry x="-340" y="250" width="80" height="80" as="geometry" />
        </mxCell>
        <mxCell id="C0ftnlB4VA3GDaE6zfBf-15" value="" style="endArrow=classic;html=1;rounded=0;exitX=0.5;exitY=1;exitDx=0;exitDy=0;entryX=0.5;entryY=0;entryDx=0;entryDy=0;" parent="1" source="C0ftnlB4VA3GDaE6zfBf-10" edge="1">
          <mxGeometry width="50" height="50" relative="1" as="geometry">
            <mxPoint x="-100" y="220" as="sourcePoint" />
            <mxPoint x="-299.99999999999955" y="250" as="targetPoint" />
          </mxGeometry>
        </mxCell>
        <mxCell id="C0ftnlB4VA3GDaE6zfBf-16" value="" style="endArrow=classic;html=1;rounded=0;entryX=0;entryY=0.5;entryDx=0;entryDy=0;exitX=0.5;exitY=1;exitDx=0;exitDy=0;" parent="1" source="C0ftnlB4VA3GDaE6zfBf-13" target="C0ftnlB4VA3GDaE6zfBf-6" edge="1">
          <mxGeometry width="50" height="50" relative="1" as="geometry">
            <mxPoint x="-480" y="240" as="sourcePoint" />
            <mxPoint x="-560" y="240" as="targetPoint" />
          </mxGeometry>
        </mxCell>
        <mxCell id="C0ftnlB4VA3GDaE6zfBf-20" value="MVP: que el user pueda registrar productos en su inventario, hacer ventas y registrar transacciones" style="rounded=1;whiteSpace=wrap;html=1;" parent="1" vertex="1">
          <mxGeometry x="-200" y="-50" width="310" height="170" as="geometry" />
        </mxCell>
        <mxCell id="C0ftnlB4VA3GDaE6zfBf-22" value="BDD comercios" style="whiteSpace=wrap;html=1;aspect=fixed;" parent="1" vertex="1">
          <mxGeometry x="-450" y="640" width="80" height="80" as="geometry" />
        </mxCell>
        <mxCell id="C0ftnlB4VA3GDaE6zfBf-23" value="" style="endArrow=classic;html=1;rounded=0;entryX=1;entryY=0.5;entryDx=0;entryDy=0;exitX=0;exitY=0.5;exitDx=0;exitDy=0;" parent="1" source="C0ftnlB4VA3GDaE6zfBf-22" target="C0ftnlB4VA3GDaE6zfBf-31" edge="1">
          <mxGeometry width="50" height="50" relative="1" as="geometry">
            <mxPoint x="-490" y="640" as="sourcePoint" />
            <mxPoint x="-240" y="660" as="targetPoint" />
          </mxGeometry>
        </mxCell>
        <mxCell id="C0ftnlB4VA3GDaE6zfBf-25" value="BDD transacciones" style="whiteSpace=wrap;html=1;aspect=fixed;" parent="1" vertex="1">
          <mxGeometry x="-450" y="810" width="80" height="80" as="geometry" />
        </mxCell>
        <mxCell id="C0ftnlB4VA3GDaE6zfBf-26" value="BDD catalogo de productos" style="whiteSpace=wrap;html=1;aspect=fixed;" parent="1" vertex="1">
          <mxGeometry x="-296" y="640" width="80" height="80" as="geometry" />
        </mxCell>
        <mxCell id="C0ftnlB4VA3GDaE6zfBf-27" value="" style="endArrow=classic;html=1;rounded=0;exitX=1;exitY=0.5;exitDx=0;exitDy=0;entryX=0;entryY=0.5;entryDx=0;entryDy=0;" parent="1" source="C0ftnlB4VA3GDaE6zfBf-22" edge="1">
          <mxGeometry width="50" height="50" relative="1" as="geometry">
            <mxPoint x="-290" y="710" as="sourcePoint" />
            <mxPoint x="-300" y="680" as="targetPoint" />
          </mxGeometry>
        </mxCell>
        <mxCell id="C0ftnlB4VA3GDaE6zfBf-28" value="" style="endArrow=classic;html=1;rounded=0;exitX=0.5;exitY=1;exitDx=0;exitDy=0;entryX=0.5;entryY=0;entryDx=0;entryDy=0;" parent="1" source="C0ftnlB4VA3GDaE6zfBf-22" target="C0ftnlB4VA3GDaE6zfBf-25" edge="1">
          <mxGeometry width="50" height="50" relative="1" as="geometry">
            <mxPoint x="-246" y="734" as="sourcePoint" />
            <mxPoint x="-340" y="790" as="targetPoint" />
          </mxGeometry>
        </mxCell>
        <mxCell id="C0ftnlB4VA3GDaE6zfBf-31" value="BDD catalogo de tipos de pago" style="whiteSpace=wrap;html=1;aspect=fixed;" parent="1" vertex="1">
          <mxGeometry x="-610" y="640" width="80" height="80" as="geometry" />
        </mxCell>
        <mxCell id="C0ftnlB4VA3GDaE6zfBf-34" value="" style="endArrow=classic;html=1;rounded=0;entryX=0;entryY=0.5;entryDx=0;entryDy=0;exitX=0.5;exitY=1;exitDx=0;exitDy=0;" parent="1" source="C0ftnlB4VA3GDaE6zfBf-31" target="C0ftnlB4VA3GDaE6zfBf-25" edge="1">
          <mxGeometry width="50" height="50" relative="1" as="geometry">
            <mxPoint x="-440" y="800" as="sourcePoint" />
            <mxPoint x="-520" y="800" as="targetPoint" />
          </mxGeometry>
        </mxCell>
        <mxCell id="C0ftnlB4VA3GDaE6zfBf-35" value="" style="endArrow=classic;startArrow=classic;html=1;rounded=0;exitX=1;exitY=0.5;exitDx=0;exitDy=0;entryX=0.4;entryY=1.006;entryDx=0;entryDy=0;entryPerimeter=0;" parent="1" source="C0ftnlB4VA3GDaE6zfBf-25" edge="1">
          <mxGeometry width="50" height="50" relative="1" as="geometry">
            <mxPoint x="-290" y="700" as="sourcePoint" />
            <mxPoint x="-268" y="720.48" as="targetPoint" />
            <Array as="points" />
          </mxGeometry>
        </mxCell>
        <mxCell id="WkCDZKJzOO0LiTBJhFqM-6" value="&lt;meta charset=&quot;utf-8&quot;&gt;&lt;pre style=&quot;margin: 0px; padding: 0px; border: 0px; font-style: normal; font-variant-ligatures: normal; font-variant-caps: normal; font-variant-numeric: inherit; font-variant-east-asian: inherit; font-variant-alternates: inherit; font-weight: 400; font-stretch: inherit; font-size: 1px; line-height: inherit; font-family: inherit; font-optical-sizing: inherit; font-kerning: inherit; font-feature-settings: inherit; font-variation-settings: inherit; vertical-align: initial; overflow-wrap: break-word; outline: none; user-select: text; opacity: 0; position: fixed; top: 0px; left: 200px; width: 50px; height: 50px; overflow: scroll; pointer-events: none; -webkit-font-smoothing: none; color: rgb(0, 0, 0); letter-spacing: normal; orphans: 2; text-align: start; text-indent: 0px; text-transform: none; widows: 2; word-spacing: 0px; -webkit-text-stroke-width: 0px; background-color: rgb(238, 238, 238); text-decoration-thickness: initial; text-decoration-style: initial; text-decoration-color: initial;&quot; lang=&quot;klingon&quot; tabindex=&quot;-1&quot; spellcheck=&quot;false&quot; data-gramm=&quot;false&quot; class=&quot;clipboard-data-container selectable hidden-input&quot;&gt;{&#xa;  &quot;type&quot;: &quot;selection&quot;,&#xa;  &quot;guid&quot;: &quot;85211b78&quot;,&#xa;  &quot;source&quot;: &quot;a4aa60ece&quot;,&#xa;  &quot;data&quot;: {&#xa;    &quot;nodes&quot;: [&#xa;      {&#xa;        &quot;id&quot;: &quot;d9859b45&quot;,&#xa;        &quot;x&quot;: 62,&#xa;        &quot;y&quot;: 156,&#xa;        &quot;width&quot;: 217,&#xa;        &quot;height&quot;: 95,&#xa;        &quot;rotation&quot;: 0,&#xa;        &quot;transform&quot;: &quot;matrix(1 0 0 1 62 156)&quot;,&#xa;        &quot;inspectables&quot;: {&#xa;          &quot;width_policy&quot;: &quot;fixed&quot;,&#xa;          &quot;height_policy&quot;: &quot;auto&quot;,&#xa;          &quot;color&quot;: &quot;rgb(0,0,0)&quot;,&#xa;          &quot;font_size&quot;: 12,&#xa;          &quot;text_align&quot;: &quot;left&quot;,&#xa;          &quot;line_height&quot;: 1.3,&#xa;          &quot;background_color&quot;: &quot;rgb(255, 255, 255)&quot;,&#xa;          &quot;stroke_color&quot;: &quot;rgb(189, 189, 189)&quot;,&#xa;          &quot;stroke_width&quot;: 1,&#xa;          &quot;stroke_style&quot;: &quot;solid&quot;,&#xa;          &quot;opacity&quot;: 100,&#xa;          &quot;bold&quot;: false,&#xa;          &quot;italic&quot;: false,&#xa;          &quot;underline&quot;: false,&#xa;          &quot;strikethrough&quot;: false,&#xa;          &quot;small_caps&quot;: false,&#xa;          &quot;uppercase&quot;: false,&#xa;          &quot;letter_spacing&quot;: 0,&#xa;          &quot;font&quot;: &quot;Roboto&quot;,&#xa;          &quot;font_weight&quot;: 400,&#xa;          &quot;aspect_lock&quot;: false,&#xa;          &quot;fe_dropshadow_enabled&quot;: false,&#xa;          &quot;fe_dropshadow_opacity&quot;: 75,&#xa;          &quot;fe_dropshadow_angle&quot;: 90,&#xa;          &quot;fe_dropshadow_distance&quot;: 5,&#xa;          &quot;fe_dropshadow_size&quot;: 5,&#xa;          &quot;fe_dropshadow_color&quot;: &quot;rgb(0, 0, 0)&quot;,&#xa;          &quot;vertical_align&quot;: &quot;top&quot;,&#xa;          &quot;padding_left&quot;: 0,&#xa;          &quot;padding_right&quot;: 0,&#xa;          &quot;padding_top&quot;: 0,&#xa;          &quot;padding_bottom&quot;: 0,&#xa;          &quot;fe_blur_enabled&quot;: false,&#xa;          &quot;fe_blur_size&quot;: 5&#xa;        },&#xa;        &quot;text&quot;: &quot;&amp;lt;table&amp;gt;&amp;lt;tbody&amp;gt;&amp;lt;tr&amp;gt;&amp;lt;th colspan=\&quot;2\&quot; data-rte-fence=\&quot;\&quot;&amp;gt;Payment_types&amp;lt;br&amp;gt;&amp;lt;/th&amp;gt;&amp;lt;/tr&amp;gt;&amp;lt;tr&amp;gt;&amp;lt;td data-rte-fence=\&quot;\&quot;&amp;gt;&amp;lt;b&amp;gt;PK&amp;lt;br&amp;gt;&amp;lt;br&amp;gt;&amp;lt;b&amp;gt;&amp;lt;b&amp;gt;&amp;lt;b&amp;gt;&amp;lt;br&amp;gt;&amp;lt;/b&amp;gt;&amp;lt;/b&amp;gt;&amp;lt;/b&amp;gt;&amp;lt;/b&amp;gt;&amp;lt;/td&amp;gt;&amp;lt;td data-rte-fence=\&quot;\&quot;&amp;gt;&amp;lt;b&amp;gt;Id&amp;lt;/b&amp;gt;&amp;lt;br&amp;gt;Name&amp;lt;br&amp;gt;Description&amp;lt;br&amp;gt;&amp;lt;/td&amp;gt;&amp;lt;/tr&amp;gt;&amp;lt;/tbody&amp;gt;&amp;lt;/table&amp;gt;&quot;,&#xa;        &quot;name&quot;: &quot;erd-entity-key&quot;,&#xa;        &quot;link&quot;: null,&#xa;        &quot;deps&quot;: {}&#xa;      }&#xa;    ],&#xa;    &quot;hierarchy&quot;: {&#xa;      &quot;d9859b45&quot;: {&#xa;        &quot;id&quot;: &quot;d9859b45&quot;,&#xa;        &quot;type&quot;: &quot;item&quot;,&#xa;        &quot;locked&quot;: false,&#xa;        &quot;link&quot;: null,&#xa;        &quot;aspect_lock&quot;: false,&#xa;        &quot;visible&quot;: true,&#xa;        &quot;instance_name&quot;: &quot;Entity with key 2&quot;&#xa;      }&#xa;    },&#xa;    &quot;idMapping&quot;: {&#xa;      &quot;d09e2678&quot;: &quot;d9859b45&quot;&#xa;    },&#xa;    &quot;size&quot;: {&#xa;      &quot;width&quot;: 217,&#xa;      &quot;height&quot;: 95&#xa;    },&#xa;    &quot;symbolInstances&quot;: {}&#xa;  }&#xa;}&lt;/pre&gt;" style="text;whiteSpace=wrap;html=1;" vertex="1" parent="1">
          <mxGeometry x="650" y="1020" width="30" height="20" as="geometry" />
        </mxCell>
        <mxCell id="WkCDZKJzOO0LiTBJhFqM-7" value="Shops" style="shape=table;startSize=30;container=1;collapsible=1;childLayout=tableLayout;fixedRows=1;rowLines=0;fontStyle=1;align=center;resizeLast=1;html=1;" vertex="1" parent="1">
          <mxGeometry x="977" y="400" width="201.00000000000045" height="220" as="geometry" />
        </mxCell>
        <mxCell id="WkCDZKJzOO0LiTBJhFqM-8" value="" style="shape=tableRow;horizontal=0;startSize=0;swimlaneHead=0;swimlaneBody=0;fillColor=none;collapsible=0;dropTarget=0;points=[[0,0.5],[1,0.5]];portConstraint=eastwest;top=0;left=0;right=0;bottom=1;" vertex="1" parent="WkCDZKJzOO0LiTBJhFqM-7">
          <mxGeometry y="30" width="201.00000000000045" height="30" as="geometry" />
        </mxCell>
        <mxCell id="WkCDZKJzOO0LiTBJhFqM-9" value="PK" style="shape=partialRectangle;connectable=0;fillColor=none;top=0;left=0;bottom=0;right=0;fontStyle=1;overflow=hidden;whiteSpace=wrap;html=1;" vertex="1" parent="WkCDZKJzOO0LiTBJhFqM-8">
          <mxGeometry width="30" height="30" as="geometry">
            <mxRectangle width="30" height="30" as="alternateBounds" />
          </mxGeometry>
        </mxCell>
        <mxCell id="WkCDZKJzOO0LiTBJhFqM-10" value="Id" style="shape=partialRectangle;connectable=0;fillColor=none;top=0;left=0;bottom=0;right=0;align=left;spacingLeft=6;fontStyle=5;overflow=hidden;whiteSpace=wrap;html=1;" vertex="1" parent="WkCDZKJzOO0LiTBJhFqM-8">
          <mxGeometry x="30" width="171.00000000000045" height="30" as="geometry">
            <mxRectangle width="171.00000000000045" height="30" as="alternateBounds" />
          </mxGeometry>
        </mxCell>
        <mxCell id="WkCDZKJzOO0LiTBJhFqM-11" value="" style="shape=tableRow;horizontal=0;startSize=0;swimlaneHead=0;swimlaneBody=0;fillColor=none;collapsible=0;dropTarget=0;points=[[0,0.5],[1,0.5]];portConstraint=eastwest;top=0;left=0;right=0;bottom=0;" vertex="1" parent="WkCDZKJzOO0LiTBJhFqM-7">
          <mxGeometry y="60" width="201.00000000000045" height="40" as="geometry" />
        </mxCell>
        <mxCell id="WkCDZKJzOO0LiTBJhFqM-12" value="" style="shape=partialRectangle;connectable=0;fillColor=none;top=0;left=0;bottom=0;right=0;editable=1;overflow=hidden;whiteSpace=wrap;html=1;" vertex="1" parent="WkCDZKJzOO0LiTBJhFqM-11">
          <mxGeometry width="30" height="40" as="geometry">
            <mxRectangle width="30" height="40" as="alternateBounds" />
          </mxGeometry>
        </mxCell>
        <mxCell id="WkCDZKJzOO0LiTBJhFqM-13" value="Name" style="shape=partialRectangle;connectable=0;fillColor=none;top=0;left=0;bottom=0;right=0;align=left;spacingLeft=6;overflow=hidden;whiteSpace=wrap;html=1;" vertex="1" parent="WkCDZKJzOO0LiTBJhFqM-11">
          <mxGeometry x="30" width="171.00000000000045" height="40" as="geometry">
            <mxRectangle width="171.00000000000045" height="40" as="alternateBounds" />
          </mxGeometry>
        </mxCell>
        <mxCell id="WkCDZKJzOO0LiTBJhFqM-14" value="" style="shape=tableRow;horizontal=0;startSize=0;swimlaneHead=0;swimlaneBody=0;fillColor=none;collapsible=0;dropTarget=0;points=[[0,0.5],[1,0.5]];portConstraint=eastwest;top=0;left=0;right=0;bottom=0;" vertex="1" parent="WkCDZKJzOO0LiTBJhFqM-7">
          <mxGeometry y="100" width="201.00000000000045" height="30" as="geometry" />
        </mxCell>
        <mxCell id="WkCDZKJzOO0LiTBJhFqM-15" value="" style="shape=partialRectangle;connectable=0;fillColor=none;top=0;left=0;bottom=0;right=0;editable=1;overflow=hidden;whiteSpace=wrap;html=1;" vertex="1" parent="WkCDZKJzOO0LiTBJhFqM-14">
          <mxGeometry width="30" height="30" as="geometry">
            <mxRectangle width="30" height="30" as="alternateBounds" />
          </mxGeometry>
        </mxCell>
        <mxCell id="WkCDZKJzOO0LiTBJhFqM-16" value="Owner" style="shape=partialRectangle;connectable=0;fillColor=none;top=0;left=0;bottom=0;right=0;align=left;spacingLeft=6;overflow=hidden;whiteSpace=wrap;html=1;" vertex="1" parent="WkCDZKJzOO0LiTBJhFqM-14">
          <mxGeometry x="30" width="171.00000000000045" height="30" as="geometry">
            <mxRectangle width="171.00000000000045" height="30" as="alternateBounds" />
          </mxGeometry>
        </mxCell>
        <mxCell id="WkCDZKJzOO0LiTBJhFqM-227" style="shape=tableRow;horizontal=0;startSize=0;swimlaneHead=0;swimlaneBody=0;fillColor=none;collapsible=0;dropTarget=0;points=[[0,0.5],[1,0.5]];portConstraint=eastwest;top=0;left=0;right=0;bottom=0;" vertex="1" parent="WkCDZKJzOO0LiTBJhFqM-7">
          <mxGeometry y="130" width="201.00000000000045" height="30" as="geometry" />
        </mxCell>
        <mxCell id="WkCDZKJzOO0LiTBJhFqM-228" style="shape=partialRectangle;connectable=0;fillColor=none;top=0;left=0;bottom=0;right=0;editable=1;overflow=hidden;whiteSpace=wrap;html=1;" vertex="1" parent="WkCDZKJzOO0LiTBJhFqM-227">
          <mxGeometry width="30" height="30" as="geometry">
            <mxRectangle width="30" height="30" as="alternateBounds" />
          </mxGeometry>
        </mxCell>
        <mxCell id="WkCDZKJzOO0LiTBJhFqM-229" value="Logo" style="shape=partialRectangle;connectable=0;fillColor=none;top=0;left=0;bottom=0;right=0;align=left;spacingLeft=6;overflow=hidden;whiteSpace=wrap;html=1;" vertex="1" parent="WkCDZKJzOO0LiTBJhFqM-227">
          <mxGeometry x="30" width="171.00000000000045" height="30" as="geometry">
            <mxRectangle width="171.00000000000045" height="30" as="alternateBounds" />
          </mxGeometry>
        </mxCell>
        <mxCell id="WkCDZKJzOO0LiTBJhFqM-230" style="shape=tableRow;horizontal=0;startSize=0;swimlaneHead=0;swimlaneBody=0;fillColor=none;collapsible=0;dropTarget=0;points=[[0,0.5],[1,0.5]];portConstraint=eastwest;top=0;left=0;right=0;bottom=0;" vertex="1" parent="WkCDZKJzOO0LiTBJhFqM-7">
          <mxGeometry y="160" width="201.00000000000045" height="30" as="geometry" />
        </mxCell>
        <mxCell id="WkCDZKJzOO0LiTBJhFqM-231" style="shape=partialRectangle;connectable=0;fillColor=none;top=0;left=0;bottom=0;right=0;editable=1;overflow=hidden;whiteSpace=wrap;html=1;" vertex="1" parent="WkCDZKJzOO0LiTBJhFqM-230">
          <mxGeometry width="30" height="30" as="geometry">
            <mxRectangle width="30" height="30" as="alternateBounds" />
          </mxGeometry>
        </mxCell>
        <mxCell id="WkCDZKJzOO0LiTBJhFqM-232" value="Description" style="shape=partialRectangle;connectable=0;fillColor=none;top=0;left=0;bottom=0;right=0;align=left;spacingLeft=6;overflow=hidden;whiteSpace=wrap;html=1;" vertex="1" parent="WkCDZKJzOO0LiTBJhFqM-230">
          <mxGeometry x="30" width="171.00000000000045" height="30" as="geometry">
            <mxRectangle width="171.00000000000045" height="30" as="alternateBounds" />
          </mxGeometry>
        </mxCell>
        <mxCell id="WkCDZKJzOO0LiTBJhFqM-233" style="shape=tableRow;horizontal=0;startSize=0;swimlaneHead=0;swimlaneBody=0;fillColor=none;collapsible=0;dropTarget=0;points=[[0,0.5],[1,0.5]];portConstraint=eastwest;top=0;left=0;right=0;bottom=0;" vertex="1" parent="WkCDZKJzOO0LiTBJhFqM-7">
          <mxGeometry y="190" width="201.00000000000045" height="30" as="geometry" />
        </mxCell>
        <mxCell id="WkCDZKJzOO0LiTBJhFqM-234" style="shape=partialRectangle;connectable=0;fillColor=none;top=0;left=0;bottom=0;right=0;editable=1;overflow=hidden;whiteSpace=wrap;html=1;" vertex="1" parent="WkCDZKJzOO0LiTBJhFqM-233">
          <mxGeometry width="30" height="30" as="geometry">
            <mxRectangle width="30" height="30" as="alternateBounds" />
          </mxGeometry>
        </mxCell>
        <mxCell id="WkCDZKJzOO0LiTBJhFqM-235" value="&lt;meta charset=&quot;utf-8&quot;&gt;&lt;span style=&quot;color: rgb(0, 0, 0); font-family: Helvetica; font-size: 12px; font-style: normal; font-variant-ligatures: normal; font-variant-caps: normal; font-weight: 400; letter-spacing: normal; orphans: 2; text-align: left; text-indent: 0px; text-transform: none; widows: 2; word-spacing: 0px; -webkit-text-stroke-width: 0px; background-color: rgb(251, 251, 251); text-decoration-thickness: initial; text-decoration-style: initial; text-decoration-color: initial; float: none; display: inline !important;&quot;&gt;Employes&lt;/span&gt;" style="shape=partialRectangle;connectable=0;fillColor=none;top=0;left=0;bottom=0;right=0;align=left;spacingLeft=6;overflow=hidden;whiteSpace=wrap;html=1;" vertex="1" parent="WkCDZKJzOO0LiTBJhFqM-233">
          <mxGeometry x="30" width="171.00000000000045" height="30" as="geometry">
            <mxRectangle width="171.00000000000045" height="30" as="alternateBounds" />
          </mxGeometry>
        </mxCell>
        <mxCell id="WkCDZKJzOO0LiTBJhFqM-32" value="Products" style="shape=table;startSize=30;container=1;collapsible=1;childLayout=tableLayout;fixedRows=1;rowLines=0;fontStyle=1;align=center;resizeLast=1;html=1;" vertex="1" parent="1">
          <mxGeometry x="1510" y="660" width="180" height="180" as="geometry" />
        </mxCell>
        <mxCell id="WkCDZKJzOO0LiTBJhFqM-33" value="" style="shape=tableRow;horizontal=0;startSize=0;swimlaneHead=0;swimlaneBody=0;fillColor=none;collapsible=0;dropTarget=0;points=[[0,0.5],[1,0.5]];portConstraint=eastwest;top=0;left=0;right=0;bottom=1;" vertex="1" parent="WkCDZKJzOO0LiTBJhFqM-32">
          <mxGeometry y="30" width="180" height="30" as="geometry" />
        </mxCell>
        <mxCell id="WkCDZKJzOO0LiTBJhFqM-34" value="PK" style="shape=partialRectangle;connectable=0;fillColor=none;top=0;left=0;bottom=0;right=0;fontStyle=1;overflow=hidden;whiteSpace=wrap;html=1;" vertex="1" parent="WkCDZKJzOO0LiTBJhFqM-33">
          <mxGeometry width="30" height="30" as="geometry">
            <mxRectangle width="30" height="30" as="alternateBounds" />
          </mxGeometry>
        </mxCell>
        <mxCell id="WkCDZKJzOO0LiTBJhFqM-35" value="Id" style="shape=partialRectangle;connectable=0;fillColor=none;top=0;left=0;bottom=0;right=0;align=left;spacingLeft=6;fontStyle=5;overflow=hidden;whiteSpace=wrap;html=1;" vertex="1" parent="WkCDZKJzOO0LiTBJhFqM-33">
          <mxGeometry x="30" width="150" height="30" as="geometry">
            <mxRectangle width="150" height="30" as="alternateBounds" />
          </mxGeometry>
        </mxCell>
        <mxCell id="WkCDZKJzOO0LiTBJhFqM-36" value="" style="shape=tableRow;horizontal=0;startSize=0;swimlaneHead=0;swimlaneBody=0;fillColor=none;collapsible=0;dropTarget=0;points=[[0,0.5],[1,0.5]];portConstraint=eastwest;top=0;left=0;right=0;bottom=0;" vertex="1" parent="WkCDZKJzOO0LiTBJhFqM-32">
          <mxGeometry y="60" width="180" height="30" as="geometry" />
        </mxCell>
        <mxCell id="WkCDZKJzOO0LiTBJhFqM-37" value="" style="shape=partialRectangle;connectable=0;fillColor=none;top=0;left=0;bottom=0;right=0;editable=1;overflow=hidden;whiteSpace=wrap;html=1;" vertex="1" parent="WkCDZKJzOO0LiTBJhFqM-36">
          <mxGeometry width="30" height="30" as="geometry">
            <mxRectangle width="30" height="30" as="alternateBounds" />
          </mxGeometry>
        </mxCell>
        <mxCell id="WkCDZKJzOO0LiTBJhFqM-38" value="Name" style="shape=partialRectangle;connectable=0;fillColor=none;top=0;left=0;bottom=0;right=0;align=left;spacingLeft=6;overflow=hidden;whiteSpace=wrap;html=1;" vertex="1" parent="WkCDZKJzOO0LiTBJhFqM-36">
          <mxGeometry x="30" width="150" height="30" as="geometry">
            <mxRectangle width="150" height="30" as="alternateBounds" />
          </mxGeometry>
        </mxCell>
        <mxCell id="WkCDZKJzOO0LiTBJhFqM-39" value="" style="shape=tableRow;horizontal=0;startSize=0;swimlaneHead=0;swimlaneBody=0;fillColor=none;collapsible=0;dropTarget=0;points=[[0,0.5],[1,0.5]];portConstraint=eastwest;top=0;left=0;right=0;bottom=0;" vertex="1" parent="WkCDZKJzOO0LiTBJhFqM-32">
          <mxGeometry y="90" width="180" height="30" as="geometry" />
        </mxCell>
        <mxCell id="WkCDZKJzOO0LiTBJhFqM-40" value="" style="shape=partialRectangle;connectable=0;fillColor=none;top=0;left=0;bottom=0;right=0;editable=1;overflow=hidden;whiteSpace=wrap;html=1;" vertex="1" parent="WkCDZKJzOO0LiTBJhFqM-39">
          <mxGeometry width="30" height="30" as="geometry">
            <mxRectangle width="30" height="30" as="alternateBounds" />
          </mxGeometry>
        </mxCell>
        <mxCell id="WkCDZKJzOO0LiTBJhFqM-41" value="Description" style="shape=partialRectangle;connectable=0;fillColor=none;top=0;left=0;bottom=0;right=0;align=left;spacingLeft=6;overflow=hidden;whiteSpace=wrap;html=1;" vertex="1" parent="WkCDZKJzOO0LiTBJhFqM-39">
          <mxGeometry x="30" width="150" height="30" as="geometry">
            <mxRectangle width="150" height="30" as="alternateBounds" />
          </mxGeometry>
        </mxCell>
        <mxCell id="WkCDZKJzOO0LiTBJhFqM-42" value="" style="shape=tableRow;horizontal=0;startSize=0;swimlaneHead=0;swimlaneBody=0;fillColor=none;collapsible=0;dropTarget=0;points=[[0,0.5],[1,0.5]];portConstraint=eastwest;top=0;left=0;right=0;bottom=0;" vertex="1" parent="WkCDZKJzOO0LiTBJhFqM-32">
          <mxGeometry y="120" width="180" height="30" as="geometry" />
        </mxCell>
        <mxCell id="WkCDZKJzOO0LiTBJhFqM-43" value="" style="shape=partialRectangle;connectable=0;fillColor=none;top=0;left=0;bottom=0;right=0;editable=1;overflow=hidden;whiteSpace=wrap;html=1;" vertex="1" parent="WkCDZKJzOO0LiTBJhFqM-42">
          <mxGeometry width="30" height="30" as="geometry">
            <mxRectangle width="30" height="30" as="alternateBounds" />
          </mxGeometry>
        </mxCell>
        <mxCell id="WkCDZKJzOO0LiTBJhFqM-44" value="image" style="shape=partialRectangle;connectable=0;fillColor=none;top=0;left=0;bottom=0;right=0;align=left;spacingLeft=6;overflow=hidden;whiteSpace=wrap;html=1;" vertex="1" parent="WkCDZKJzOO0LiTBJhFqM-42">
          <mxGeometry x="30" width="150" height="30" as="geometry">
            <mxRectangle width="150" height="30" as="alternateBounds" />
          </mxGeometry>
        </mxCell>
        <mxCell id="WkCDZKJzOO0LiTBJhFqM-45" style="shape=tableRow;horizontal=0;startSize=0;swimlaneHead=0;swimlaneBody=0;fillColor=none;collapsible=0;dropTarget=0;points=[[0,0.5],[1,0.5]];portConstraint=eastwest;top=0;left=0;right=0;bottom=0;" vertex="1" parent="WkCDZKJzOO0LiTBJhFqM-32">
          <mxGeometry y="150" width="180" height="30" as="geometry" />
        </mxCell>
        <mxCell id="WkCDZKJzOO0LiTBJhFqM-46" style="shape=partialRectangle;connectable=0;fillColor=none;top=0;left=0;bottom=0;right=0;editable=1;overflow=hidden;whiteSpace=wrap;html=1;" vertex="1" parent="WkCDZKJzOO0LiTBJhFqM-45">
          <mxGeometry width="30" height="30" as="geometry">
            <mxRectangle width="30" height="30" as="alternateBounds" />
          </mxGeometry>
        </mxCell>
        <mxCell id="WkCDZKJzOO0LiTBJhFqM-47" value="id_company" style="shape=partialRectangle;connectable=0;fillColor=none;top=0;left=0;bottom=0;right=0;align=left;spacingLeft=6;overflow=hidden;whiteSpace=wrap;html=1;" vertex="1" parent="WkCDZKJzOO0LiTBJhFqM-45">
          <mxGeometry x="30" width="150" height="30" as="geometry">
            <mxRectangle width="150" height="30" as="alternateBounds" />
          </mxGeometry>
        </mxCell>
        <mxCell id="WkCDZKJzOO0LiTBJhFqM-66" value="Payment_types" style="shape=table;startSize=30;container=1;collapsible=1;childLayout=tableLayout;fixedRows=1;rowLines=0;fontStyle=1;align=center;resizeLast=1;html=1;" vertex="1" parent="1">
          <mxGeometry x="500" y="790" width="180" height="120.00000000000045" as="geometry" />
        </mxCell>
        <mxCell id="WkCDZKJzOO0LiTBJhFqM-67" value="" style="shape=tableRow;horizontal=0;startSize=0;swimlaneHead=0;swimlaneBody=0;fillColor=none;collapsible=0;dropTarget=0;points=[[0,0.5],[1,0.5]];portConstraint=eastwest;top=0;left=0;right=0;bottom=1;" vertex="1" parent="WkCDZKJzOO0LiTBJhFqM-66">
          <mxGeometry y="30" width="180" height="30" as="geometry" />
        </mxCell>
        <mxCell id="WkCDZKJzOO0LiTBJhFqM-68" value="PK" style="shape=partialRectangle;connectable=0;fillColor=none;top=0;left=0;bottom=0;right=0;fontStyle=1;overflow=hidden;whiteSpace=wrap;html=1;" vertex="1" parent="WkCDZKJzOO0LiTBJhFqM-67">
          <mxGeometry width="30" height="30" as="geometry">
            <mxRectangle width="30" height="30" as="alternateBounds" />
          </mxGeometry>
        </mxCell>
        <mxCell id="WkCDZKJzOO0LiTBJhFqM-69" value="Id" style="shape=partialRectangle;connectable=0;fillColor=none;top=0;left=0;bottom=0;right=0;align=left;spacingLeft=6;fontStyle=5;overflow=hidden;whiteSpace=wrap;html=1;" vertex="1" parent="WkCDZKJzOO0LiTBJhFqM-67">
          <mxGeometry x="30" width="150" height="30" as="geometry">
            <mxRectangle width="150" height="30" as="alternateBounds" />
          </mxGeometry>
        </mxCell>
        <mxCell id="WkCDZKJzOO0LiTBJhFqM-70" value="" style="shape=tableRow;horizontal=0;startSize=0;swimlaneHead=0;swimlaneBody=0;fillColor=none;collapsible=0;dropTarget=0;points=[[0,0.5],[1,0.5]];portConstraint=eastwest;top=0;left=0;right=0;bottom=0;" vertex="1" parent="WkCDZKJzOO0LiTBJhFqM-66">
          <mxGeometry y="60" width="180" height="20" as="geometry" />
        </mxCell>
        <mxCell id="WkCDZKJzOO0LiTBJhFqM-71" value="" style="shape=partialRectangle;connectable=0;fillColor=none;top=0;left=0;bottom=0;right=0;editable=1;overflow=hidden;whiteSpace=wrap;html=1;" vertex="1" parent="WkCDZKJzOO0LiTBJhFqM-70">
          <mxGeometry width="30" height="20" as="geometry">
            <mxRectangle width="30" height="20" as="alternateBounds" />
          </mxGeometry>
        </mxCell>
        <mxCell id="WkCDZKJzOO0LiTBJhFqM-72" value="Name" style="shape=partialRectangle;connectable=0;fillColor=none;top=0;left=0;bottom=0;right=0;align=left;spacingLeft=6;overflow=hidden;whiteSpace=wrap;html=1;" vertex="1" parent="WkCDZKJzOO0LiTBJhFqM-70">
          <mxGeometry x="30" width="150" height="20" as="geometry">
            <mxRectangle width="150" height="20" as="alternateBounds" />
          </mxGeometry>
        </mxCell>
        <mxCell id="WkCDZKJzOO0LiTBJhFqM-79" style="shape=tableRow;horizontal=0;startSize=0;swimlaneHead=0;swimlaneBody=0;fillColor=none;collapsible=0;dropTarget=0;points=[[0,0.5],[1,0.5]];portConstraint=eastwest;top=0;left=0;right=0;bottom=0;" vertex="1" parent="WkCDZKJzOO0LiTBJhFqM-66">
          <mxGeometry y="80" width="180" height="40" as="geometry" />
        </mxCell>
        <mxCell id="WkCDZKJzOO0LiTBJhFqM-80" style="shape=partialRectangle;connectable=0;fillColor=none;top=0;left=0;bottom=0;right=0;editable=1;overflow=hidden;whiteSpace=wrap;html=1;" vertex="1" parent="WkCDZKJzOO0LiTBJhFqM-79">
          <mxGeometry width="30" height="40" as="geometry">
            <mxRectangle width="30" height="40" as="alternateBounds" />
          </mxGeometry>
        </mxCell>
        <mxCell id="WkCDZKJzOO0LiTBJhFqM-81" value="&lt;meta charset=&quot;utf-8&quot;&gt;&lt;span style=&quot;color: rgb(0, 0, 0); font-family: Helvetica; font-size: 12px; font-style: normal; font-variant-ligatures: normal; font-variant-caps: normal; font-weight: 400; letter-spacing: normal; orphans: 2; text-align: left; text-indent: 0px; text-transform: none; widows: 2; word-spacing: 0px; -webkit-text-stroke-width: 0px; background-color: rgb(251, 251, 251); text-decoration-thickness: initial; text-decoration-style: initial; text-decoration-color: initial; float: none; display: inline !important;&quot;&gt;Description&lt;/span&gt;" style="shape=partialRectangle;connectable=0;fillColor=none;top=0;left=0;bottom=0;right=0;align=left;spacingLeft=6;overflow=hidden;whiteSpace=wrap;html=1;" vertex="1" parent="WkCDZKJzOO0LiTBJhFqM-79">
          <mxGeometry x="30" width="150" height="40" as="geometry">
            <mxRectangle width="150" height="40" as="alternateBounds" />
          </mxGeometry>
        </mxCell>
        <mxCell id="WkCDZKJzOO0LiTBJhFqM-83" value="transaction" style="shape=table;startSize=30;container=1;collapsible=1;childLayout=tableLayout;fixedRows=1;rowLines=0;fontStyle=1;align=center;resizeLast=1;html=1;" vertex="1" parent="1">
          <mxGeometry x="930" y="840" width="180" height="120" as="geometry" />
        </mxCell>
        <mxCell id="WkCDZKJzOO0LiTBJhFqM-84" value="" style="shape=tableRow;horizontal=0;startSize=0;swimlaneHead=0;swimlaneBody=0;fillColor=none;collapsible=0;dropTarget=0;points=[[0,0.5],[1,0.5]];portConstraint=eastwest;top=0;left=0;right=0;bottom=1;" vertex="1" parent="WkCDZKJzOO0LiTBJhFqM-83">
          <mxGeometry y="30" width="180" height="30" as="geometry" />
        </mxCell>
        <mxCell id="WkCDZKJzOO0LiTBJhFqM-85" value="PK" style="shape=partialRectangle;connectable=0;fillColor=none;top=0;left=0;bottom=0;right=0;fontStyle=1;overflow=hidden;whiteSpace=wrap;html=1;" vertex="1" parent="WkCDZKJzOO0LiTBJhFqM-84">
          <mxGeometry width="30" height="30" as="geometry">
            <mxRectangle width="30" height="30" as="alternateBounds" />
          </mxGeometry>
        </mxCell>
        <mxCell id="WkCDZKJzOO0LiTBJhFqM-86" value="Id" style="shape=partialRectangle;connectable=0;fillColor=none;top=0;left=0;bottom=0;right=0;align=left;spacingLeft=6;fontStyle=5;overflow=hidden;whiteSpace=wrap;html=1;" vertex="1" parent="WkCDZKJzOO0LiTBJhFqM-84">
          <mxGeometry x="30" width="150" height="30" as="geometry">
            <mxRectangle width="150" height="30" as="alternateBounds" />
          </mxGeometry>
        </mxCell>
        <mxCell id="WkCDZKJzOO0LiTBJhFqM-87" value="" style="shape=tableRow;horizontal=0;startSize=0;swimlaneHead=0;swimlaneBody=0;fillColor=none;collapsible=0;dropTarget=0;points=[[0,0.5],[1,0.5]];portConstraint=eastwest;top=0;left=0;right=0;bottom=0;" vertex="1" parent="WkCDZKJzOO0LiTBJhFqM-83">
          <mxGeometry y="60" width="180" height="30" as="geometry" />
        </mxCell>
        <mxCell id="WkCDZKJzOO0LiTBJhFqM-88" value="FK" style="shape=partialRectangle;connectable=0;fillColor=none;top=0;left=0;bottom=0;right=0;editable=1;overflow=hidden;whiteSpace=wrap;html=1;" vertex="1" parent="WkCDZKJzOO0LiTBJhFqM-87">
          <mxGeometry width="30" height="30" as="geometry">
            <mxRectangle width="30" height="30" as="alternateBounds" />
          </mxGeometry>
        </mxCell>
        <mxCell id="WkCDZKJzOO0LiTBJhFqM-89" value="id_payment_type" style="shape=partialRectangle;connectable=0;fillColor=none;top=0;left=0;bottom=0;right=0;align=left;spacingLeft=6;overflow=hidden;whiteSpace=wrap;html=1;" vertex="1" parent="WkCDZKJzOO0LiTBJhFqM-87">
          <mxGeometry x="30" width="150" height="30" as="geometry">
            <mxRectangle width="150" height="30" as="alternateBounds" />
          </mxGeometry>
        </mxCell>
        <mxCell id="WkCDZKJzOO0LiTBJhFqM-90" value="" style="shape=tableRow;horizontal=0;startSize=0;swimlaneHead=0;swimlaneBody=0;fillColor=none;collapsible=0;dropTarget=0;points=[[0,0.5],[1,0.5]];portConstraint=eastwest;top=0;left=0;right=0;bottom=0;" vertex="1" parent="WkCDZKJzOO0LiTBJhFqM-83">
          <mxGeometry y="90" width="180" height="30" as="geometry" />
        </mxCell>
        <mxCell id="WkCDZKJzOO0LiTBJhFqM-91" value="FK" style="shape=partialRectangle;connectable=0;fillColor=none;top=0;left=0;bottom=0;right=0;editable=1;overflow=hidden;whiteSpace=wrap;html=1;" vertex="1" parent="WkCDZKJzOO0LiTBJhFqM-90">
          <mxGeometry width="30" height="30" as="geometry">
            <mxRectangle width="30" height="30" as="alternateBounds" />
          </mxGeometry>
        </mxCell>
        <mxCell id="WkCDZKJzOO0LiTBJhFqM-92" value="id_transaction_Inventory" style="shape=partialRectangle;connectable=0;fillColor=none;top=0;left=0;bottom=0;right=0;align=left;spacingLeft=6;overflow=hidden;whiteSpace=wrap;html=1;" vertex="1" parent="WkCDZKJzOO0LiTBJhFqM-90">
          <mxGeometry x="30" width="150" height="30" as="geometry">
            <mxRectangle width="150" height="30" as="alternateBounds" />
          </mxGeometry>
        </mxCell>
        <mxCell id="WkCDZKJzOO0LiTBJhFqM-99" value="shops_transactions" style="shape=table;startSize=30;container=1;collapsible=1;childLayout=tableLayout;fixedRows=1;rowLines=0;fontStyle=1;align=center;resizeLast=1;html=1;" vertex="1" parent="1">
          <mxGeometry x="620" y="590" width="180" height="120" as="geometry" />
        </mxCell>
        <mxCell id="WkCDZKJzOO0LiTBJhFqM-100" value="" style="shape=tableRow;horizontal=0;startSize=0;swimlaneHead=0;swimlaneBody=0;fillColor=none;collapsible=0;dropTarget=0;points=[[0,0.5],[1,0.5]];portConstraint=eastwest;top=0;left=0;right=0;bottom=1;" vertex="1" parent="WkCDZKJzOO0LiTBJhFqM-99">
          <mxGeometry y="30" width="180" height="30" as="geometry" />
        </mxCell>
        <mxCell id="WkCDZKJzOO0LiTBJhFqM-101" value="PK" style="shape=partialRectangle;connectable=0;fillColor=none;top=0;left=0;bottom=0;right=0;fontStyle=1;overflow=hidden;whiteSpace=wrap;html=1;" vertex="1" parent="WkCDZKJzOO0LiTBJhFqM-100">
          <mxGeometry width="30" height="30" as="geometry">
            <mxRectangle width="30" height="30" as="alternateBounds" />
          </mxGeometry>
        </mxCell>
        <mxCell id="WkCDZKJzOO0LiTBJhFqM-102" value="Id" style="shape=partialRectangle;connectable=0;fillColor=none;top=0;left=0;bottom=0;right=0;align=left;spacingLeft=6;fontStyle=5;overflow=hidden;whiteSpace=wrap;html=1;" vertex="1" parent="WkCDZKJzOO0LiTBJhFqM-100">
          <mxGeometry x="30" width="150" height="30" as="geometry">
            <mxRectangle width="150" height="30" as="alternateBounds" />
          </mxGeometry>
        </mxCell>
        <mxCell id="WkCDZKJzOO0LiTBJhFqM-103" value="" style="shape=tableRow;horizontal=0;startSize=0;swimlaneHead=0;swimlaneBody=0;fillColor=none;collapsible=0;dropTarget=0;points=[[0,0.5],[1,0.5]];portConstraint=eastwest;top=0;left=0;right=0;bottom=0;" vertex="1" parent="WkCDZKJzOO0LiTBJhFqM-99">
          <mxGeometry y="60" width="180" height="30" as="geometry" />
        </mxCell>
        <mxCell id="WkCDZKJzOO0LiTBJhFqM-104" value="FK" style="shape=partialRectangle;connectable=0;fillColor=none;top=0;left=0;bottom=0;right=0;editable=1;overflow=hidden;whiteSpace=wrap;html=1;" vertex="1" parent="WkCDZKJzOO0LiTBJhFqM-103">
          <mxGeometry width="30" height="30" as="geometry">
            <mxRectangle width="30" height="30" as="alternateBounds" />
          </mxGeometry>
        </mxCell>
        <mxCell id="WkCDZKJzOO0LiTBJhFqM-105" value="Id_shop" style="shape=partialRectangle;connectable=0;fillColor=none;top=0;left=0;bottom=0;right=0;align=left;spacingLeft=6;overflow=hidden;whiteSpace=wrap;html=1;" vertex="1" parent="WkCDZKJzOO0LiTBJhFqM-103">
          <mxGeometry x="30" width="150" height="30" as="geometry">
            <mxRectangle width="150" height="30" as="alternateBounds" />
          </mxGeometry>
        </mxCell>
        <mxCell id="WkCDZKJzOO0LiTBJhFqM-106" value="" style="shape=tableRow;horizontal=0;startSize=0;swimlaneHead=0;swimlaneBody=0;fillColor=none;collapsible=0;dropTarget=0;points=[[0,0.5],[1,0.5]];portConstraint=eastwest;top=0;left=0;right=0;bottom=0;" vertex="1" parent="WkCDZKJzOO0LiTBJhFqM-99">
          <mxGeometry y="90" width="180" height="30" as="geometry" />
        </mxCell>
        <mxCell id="WkCDZKJzOO0LiTBJhFqM-107" value="FK" style="shape=partialRectangle;connectable=0;fillColor=none;top=0;left=0;bottom=0;right=0;editable=1;overflow=hidden;whiteSpace=wrap;html=1;" vertex="1" parent="WkCDZKJzOO0LiTBJhFqM-106">
          <mxGeometry width="30" height="30" as="geometry">
            <mxRectangle width="30" height="30" as="alternateBounds" />
          </mxGeometry>
        </mxCell>
        <mxCell id="WkCDZKJzOO0LiTBJhFqM-108" value="Id_transaction" style="shape=partialRectangle;connectable=0;fillColor=none;top=0;left=0;bottom=0;right=0;align=left;spacingLeft=6;overflow=hidden;whiteSpace=wrap;html=1;" vertex="1" parent="WkCDZKJzOO0LiTBJhFqM-106">
          <mxGeometry x="30" width="150" height="30" as="geometry">
            <mxRectangle width="150" height="30" as="alternateBounds" />
          </mxGeometry>
        </mxCell>
        <mxCell id="WkCDZKJzOO0LiTBJhFqM-150" value="Inventory" style="shape=table;startSize=30;container=1;collapsible=1;childLayout=tableLayout;fixedRows=1;rowLines=0;fontStyle=1;align=center;resizeLast=1;html=1;" vertex="1" parent="1">
          <mxGeometry x="1240" y="585" width="180" height="220" as="geometry" />
        </mxCell>
        <mxCell id="WkCDZKJzOO0LiTBJhFqM-151" value="" style="shape=tableRow;horizontal=0;startSize=0;swimlaneHead=0;swimlaneBody=0;fillColor=none;collapsible=0;dropTarget=0;points=[[0,0.5],[1,0.5]];portConstraint=eastwest;top=0;left=0;right=0;bottom=1;" vertex="1" parent="WkCDZKJzOO0LiTBJhFqM-150">
          <mxGeometry y="30" width="180" height="30" as="geometry" />
        </mxCell>
        <mxCell id="WkCDZKJzOO0LiTBJhFqM-152" value="PK" style="shape=partialRectangle;connectable=0;fillColor=none;top=0;left=0;bottom=0;right=0;fontStyle=1;overflow=hidden;whiteSpace=wrap;html=1;" vertex="1" parent="WkCDZKJzOO0LiTBJhFqM-151">
          <mxGeometry width="30" height="30" as="geometry">
            <mxRectangle width="30" height="30" as="alternateBounds" />
          </mxGeometry>
        </mxCell>
        <mxCell id="WkCDZKJzOO0LiTBJhFqM-153" value="Id" style="shape=partialRectangle;connectable=0;fillColor=none;top=0;left=0;bottom=0;right=0;align=left;spacingLeft=6;fontStyle=5;overflow=hidden;whiteSpace=wrap;html=1;" vertex="1" parent="WkCDZKJzOO0LiTBJhFqM-151">
          <mxGeometry x="30" width="150" height="30" as="geometry">
            <mxRectangle width="150" height="30" as="alternateBounds" />
          </mxGeometry>
        </mxCell>
        <mxCell id="WkCDZKJzOO0LiTBJhFqM-154" value="" style="shape=tableRow;horizontal=0;startSize=0;swimlaneHead=0;swimlaneBody=0;fillColor=none;collapsible=0;dropTarget=0;points=[[0,0.5],[1,0.5]];portConstraint=eastwest;top=0;left=0;right=0;bottom=0;" vertex="1" parent="WkCDZKJzOO0LiTBJhFqM-150">
          <mxGeometry y="60" width="180" height="40" as="geometry" />
        </mxCell>
        <mxCell id="WkCDZKJzOO0LiTBJhFqM-155" value="FK" style="shape=partialRectangle;connectable=0;fillColor=none;top=0;left=0;bottom=0;right=0;editable=1;overflow=hidden;whiteSpace=wrap;html=1;" vertex="1" parent="WkCDZKJzOO0LiTBJhFqM-154">
          <mxGeometry width="30" height="40" as="geometry">
            <mxRectangle width="30" height="40" as="alternateBounds" />
          </mxGeometry>
        </mxCell>
        <mxCell id="WkCDZKJzOO0LiTBJhFqM-156" value="id_shop" style="shape=partialRectangle;connectable=0;fillColor=none;top=0;left=0;bottom=0;right=0;align=left;spacingLeft=6;overflow=hidden;whiteSpace=wrap;html=1;" vertex="1" parent="WkCDZKJzOO0LiTBJhFqM-154">
          <mxGeometry x="30" width="150" height="40" as="geometry">
            <mxRectangle width="150" height="40" as="alternateBounds" />
          </mxGeometry>
        </mxCell>
        <mxCell id="WkCDZKJzOO0LiTBJhFqM-157" style="shape=tableRow;horizontal=0;startSize=0;swimlaneHead=0;swimlaneBody=0;fillColor=none;collapsible=0;dropTarget=0;points=[[0,0.5],[1,0.5]];portConstraint=eastwest;top=0;left=0;right=0;bottom=0;" vertex="1" parent="WkCDZKJzOO0LiTBJhFqM-150">
          <mxGeometry y="100" width="180" height="40" as="geometry" />
        </mxCell>
        <mxCell id="WkCDZKJzOO0LiTBJhFqM-158" value="FK" style="shape=partialRectangle;connectable=0;fillColor=none;top=0;left=0;bottom=0;right=0;editable=1;overflow=hidden;whiteSpace=wrap;html=1;" vertex="1" parent="WkCDZKJzOO0LiTBJhFqM-157">
          <mxGeometry width="30" height="40" as="geometry">
            <mxRectangle width="30" height="40" as="alternateBounds" />
          </mxGeometry>
        </mxCell>
        <mxCell id="WkCDZKJzOO0LiTBJhFqM-159" value="id_Product" style="shape=partialRectangle;connectable=0;fillColor=none;top=0;left=0;bottom=0;right=0;align=left;spacingLeft=6;overflow=hidden;whiteSpace=wrap;html=1;" vertex="1" parent="WkCDZKJzOO0LiTBJhFqM-157">
          <mxGeometry x="30" width="150" height="40" as="geometry">
            <mxRectangle width="150" height="40" as="alternateBounds" />
          </mxGeometry>
        </mxCell>
        <mxCell id="WkCDZKJzOO0LiTBJhFqM-160" style="shape=tableRow;horizontal=0;startSize=0;swimlaneHead=0;swimlaneBody=0;fillColor=none;collapsible=0;dropTarget=0;points=[[0,0.5],[1,0.5]];portConstraint=eastwest;top=0;left=0;right=0;bottom=0;" vertex="1" parent="WkCDZKJzOO0LiTBJhFqM-150">
          <mxGeometry y="140" width="180" height="40" as="geometry" />
        </mxCell>
        <mxCell id="WkCDZKJzOO0LiTBJhFqM-161" style="shape=partialRectangle;connectable=0;fillColor=none;top=0;left=0;bottom=0;right=0;editable=1;overflow=hidden;whiteSpace=wrap;html=1;" vertex="1" parent="WkCDZKJzOO0LiTBJhFqM-160">
          <mxGeometry width="30" height="40" as="geometry">
            <mxRectangle width="30" height="40" as="alternateBounds" />
          </mxGeometry>
        </mxCell>
        <mxCell id="WkCDZKJzOO0LiTBJhFqM-162" value="Price" style="shape=partialRectangle;connectable=0;fillColor=none;top=0;left=0;bottom=0;right=0;align=left;spacingLeft=6;overflow=hidden;whiteSpace=wrap;html=1;" vertex="1" parent="WkCDZKJzOO0LiTBJhFqM-160">
          <mxGeometry x="30" width="150" height="40" as="geometry">
            <mxRectangle width="150" height="40" as="alternateBounds" />
          </mxGeometry>
        </mxCell>
        <mxCell id="WkCDZKJzOO0LiTBJhFqM-166" style="shape=tableRow;horizontal=0;startSize=0;swimlaneHead=0;swimlaneBody=0;fillColor=none;collapsible=0;dropTarget=0;points=[[0,0.5],[1,0.5]];portConstraint=eastwest;top=0;left=0;right=0;bottom=0;" vertex="1" parent="WkCDZKJzOO0LiTBJhFqM-150">
          <mxGeometry y="180" width="180" height="40" as="geometry" />
        </mxCell>
        <mxCell id="WkCDZKJzOO0LiTBJhFqM-167" style="shape=partialRectangle;connectable=0;fillColor=none;top=0;left=0;bottom=0;right=0;editable=1;overflow=hidden;whiteSpace=wrap;html=1;" vertex="1" parent="WkCDZKJzOO0LiTBJhFqM-166">
          <mxGeometry width="30" height="40" as="geometry">
            <mxRectangle width="30" height="40" as="alternateBounds" />
          </mxGeometry>
        </mxCell>
        <mxCell id="WkCDZKJzOO0LiTBJhFqM-168" value="quantity" style="shape=partialRectangle;connectable=0;fillColor=none;top=0;left=0;bottom=0;right=0;align=left;spacingLeft=6;overflow=hidden;whiteSpace=wrap;html=1;" vertex="1" parent="WkCDZKJzOO0LiTBJhFqM-166">
          <mxGeometry x="30" width="150" height="40" as="geometry">
            <mxRectangle width="150" height="40" as="alternateBounds" />
          </mxGeometry>
        </mxCell>
        <mxCell id="WkCDZKJzOO0LiTBJhFqM-175" value="" style="edgeStyle=entityRelationEdgeStyle;fontSize=12;html=1;endArrow=ERmandOne;startArrow=ERmandOne;rounded=0;exitX=1;exitY=0.5;exitDx=0;exitDy=0;entryX=0;entryY=0.5;entryDx=0;entryDy=0;" edge="1" parent="1" source="WkCDZKJzOO0LiTBJhFqM-8" target="WkCDZKJzOO0LiTBJhFqM-154">
          <mxGeometry width="100" height="100" relative="1" as="geometry">
            <mxPoint x="1090" y="750" as="sourcePoint" />
            <mxPoint x="1190" y="650" as="targetPoint" />
          </mxGeometry>
        </mxCell>
        <mxCell id="WkCDZKJzOO0LiTBJhFqM-176" value="" style="edgeStyle=entityRelationEdgeStyle;fontSize=12;html=1;endArrow=ERmandOne;startArrow=ERmandOne;rounded=0;exitX=1;exitY=0.5;exitDx=0;exitDy=0;entryX=0;entryY=0.5;entryDx=0;entryDy=0;" edge="1" parent="1" source="WkCDZKJzOO0LiTBJhFqM-157" target="WkCDZKJzOO0LiTBJhFqM-33">
          <mxGeometry width="100" height="100" relative="1" as="geometry">
            <mxPoint x="1110" y="695" as="sourcePoint" />
            <mxPoint x="1200" y="610" as="targetPoint" />
          </mxGeometry>
        </mxCell>
        <mxCell id="WkCDZKJzOO0LiTBJhFqM-178" value="" style="edgeStyle=entityRelationEdgeStyle;fontSize=12;html=1;endArrow=ERmandOne;startArrow=ERmandOne;rounded=0;entryX=1;entryY=0.5;entryDx=0;entryDy=0;exitX=0;exitY=0.5;exitDx=0;exitDy=0;" edge="1" parent="1" source="WkCDZKJzOO0LiTBJhFqM-84" target="WkCDZKJzOO0LiTBJhFqM-106">
          <mxGeometry width="100" height="100" relative="1" as="geometry">
            <mxPoint x="840" y="890" as="sourcePoint" />
            <mxPoint x="940" y="790" as="targetPoint" />
          </mxGeometry>
        </mxCell>
        <mxCell id="WkCDZKJzOO0LiTBJhFqM-180" value="transaction_Inventories" style="shape=table;startSize=30;container=1;collapsible=1;childLayout=tableLayout;fixedRows=1;rowLines=0;fontStyle=1;align=center;resizeLast=1;html=1;" vertex="1" parent="1">
          <mxGeometry x="1240" y="850" width="180" height="120.00000000000045" as="geometry" />
        </mxCell>
        <mxCell id="WkCDZKJzOO0LiTBJhFqM-181" value="" style="shape=tableRow;horizontal=0;startSize=0;swimlaneHead=0;swimlaneBody=0;fillColor=none;collapsible=0;dropTarget=0;points=[[0,0.5],[1,0.5]];portConstraint=eastwest;top=0;left=0;right=0;bottom=1;" vertex="1" parent="WkCDZKJzOO0LiTBJhFqM-180">
          <mxGeometry y="30" width="180" height="30" as="geometry" />
        </mxCell>
        <mxCell id="WkCDZKJzOO0LiTBJhFqM-182" value="PK" style="shape=partialRectangle;connectable=0;fillColor=none;top=0;left=0;bottom=0;right=0;fontStyle=1;overflow=hidden;whiteSpace=wrap;html=1;" vertex="1" parent="WkCDZKJzOO0LiTBJhFqM-181">
          <mxGeometry width="30" height="30" as="geometry">
            <mxRectangle width="30" height="30" as="alternateBounds" />
          </mxGeometry>
        </mxCell>
        <mxCell id="WkCDZKJzOO0LiTBJhFqM-183" value="Id" style="shape=partialRectangle;connectable=0;fillColor=none;top=0;left=0;bottom=0;right=0;align=left;spacingLeft=6;fontStyle=5;overflow=hidden;whiteSpace=wrap;html=1;" vertex="1" parent="WkCDZKJzOO0LiTBJhFqM-181">
          <mxGeometry x="30" width="150" height="30" as="geometry">
            <mxRectangle width="150" height="30" as="alternateBounds" />
          </mxGeometry>
        </mxCell>
        <mxCell id="WkCDZKJzOO0LiTBJhFqM-184" value="" style="shape=tableRow;horizontal=0;startSize=0;swimlaneHead=0;swimlaneBody=0;fillColor=none;collapsible=0;dropTarget=0;points=[[0,0.5],[1,0.5]];portConstraint=eastwest;top=0;left=0;right=0;bottom=0;" vertex="1" parent="WkCDZKJzOO0LiTBJhFqM-180">
          <mxGeometry y="60" width="180" height="30" as="geometry" />
        </mxCell>
        <mxCell id="WkCDZKJzOO0LiTBJhFqM-185" value="FK" style="shape=partialRectangle;connectable=0;fillColor=none;top=0;left=0;bottom=0;right=0;editable=1;overflow=hidden;whiteSpace=wrap;html=1;" vertex="1" parent="WkCDZKJzOO0LiTBJhFqM-184">
          <mxGeometry width="30" height="30" as="geometry">
            <mxRectangle width="30" height="30" as="alternateBounds" />
          </mxGeometry>
        </mxCell>
        <mxCell id="WkCDZKJzOO0LiTBJhFqM-186" value="id_Inventory" style="shape=partialRectangle;connectable=0;fillColor=none;top=0;left=0;bottom=0;right=0;align=left;spacingLeft=6;overflow=hidden;whiteSpace=wrap;html=1;" vertex="1" parent="WkCDZKJzOO0LiTBJhFqM-184">
          <mxGeometry x="30" width="150" height="30" as="geometry">
            <mxRectangle width="150" height="30" as="alternateBounds" />
          </mxGeometry>
        </mxCell>
        <mxCell id="WkCDZKJzOO0LiTBJhFqM-190" style="shape=tableRow;horizontal=0;startSize=0;swimlaneHead=0;swimlaneBody=0;fillColor=none;collapsible=0;dropTarget=0;points=[[0,0.5],[1,0.5]];portConstraint=eastwest;top=0;left=0;right=0;bottom=0;" vertex="1" parent="WkCDZKJzOO0LiTBJhFqM-180">
          <mxGeometry y="90" width="180" height="30" as="geometry" />
        </mxCell>
        <mxCell id="WkCDZKJzOO0LiTBJhFqM-191" style="shape=partialRectangle;connectable=0;fillColor=none;top=0;left=0;bottom=0;right=0;editable=1;overflow=hidden;whiteSpace=wrap;html=1;" vertex="1" parent="WkCDZKJzOO0LiTBJhFqM-190">
          <mxGeometry width="30" height="30" as="geometry">
            <mxRectangle width="30" height="30" as="alternateBounds" />
          </mxGeometry>
        </mxCell>
        <mxCell id="WkCDZKJzOO0LiTBJhFqM-192" value="quantity_sold" style="shape=partialRectangle;connectable=0;fillColor=none;top=0;left=0;bottom=0;right=0;align=left;spacingLeft=6;overflow=hidden;whiteSpace=wrap;html=1;" vertex="1" parent="WkCDZKJzOO0LiTBJhFqM-190">
          <mxGeometry x="30" width="150" height="30" as="geometry">
            <mxRectangle width="150" height="30" as="alternateBounds" />
          </mxGeometry>
        </mxCell>
        <mxCell id="WkCDZKJzOO0LiTBJhFqM-201" value="" style="edgeStyle=entityRelationEdgeStyle;fontSize=12;html=1;endArrow=ERmandOne;startArrow=ERmandOne;rounded=0;exitX=1;exitY=0.5;exitDx=0;exitDy=0;entryX=0;entryY=0.5;entryDx=0;entryDy=0;" edge="1" parent="1" source="WkCDZKJzOO0LiTBJhFqM-90" target="WkCDZKJzOO0LiTBJhFqM-181">
          <mxGeometry width="100" height="100" relative="1" as="geometry">
            <mxPoint x="1411" y="1080" as="sourcePoint" />
            <mxPoint x="1271" y="770" as="targetPoint" />
          </mxGeometry>
        </mxCell>
        <mxCell id="WkCDZKJzOO0LiTBJhFqM-203" value="" style="edgeStyle=entityRelationEdgeStyle;fontSize=12;html=1;endArrow=ERmandOne;startArrow=ERmandOne;rounded=0;entryX=1;entryY=0.5;entryDx=0;entryDy=0;exitX=1;exitY=0.5;exitDx=0;exitDy=0;" edge="1" parent="1" source="WkCDZKJzOO0LiTBJhFqM-184" target="WkCDZKJzOO0LiTBJhFqM-151">
          <mxGeometry width="100" height="100" relative="1" as="geometry">
            <mxPoint x="1480" y="910" as="sourcePoint" />
            <mxPoint x="1382" y="475" as="targetPoint" />
          </mxGeometry>
        </mxCell>
        <mxCell id="WkCDZKJzOO0LiTBJhFqM-210" value="Payment_types_Shops" style="shape=table;startSize=30;container=1;collapsible=1;childLayout=tableLayout;fixedRows=1;rowLines=0;fontStyle=1;align=center;resizeLast=1;html=1;" vertex="1" parent="1">
          <mxGeometry x="630" y="376" width="180" height="120.00000000000045" as="geometry" />
        </mxCell>
        <mxCell id="WkCDZKJzOO0LiTBJhFqM-211" value="" style="shape=tableRow;horizontal=0;startSize=0;swimlaneHead=0;swimlaneBody=0;fillColor=none;collapsible=0;dropTarget=0;points=[[0,0.5],[1,0.5]];portConstraint=eastwest;top=0;left=0;right=0;bottom=1;" vertex="1" parent="WkCDZKJzOO0LiTBJhFqM-210">
          <mxGeometry y="30" width="180" height="30" as="geometry" />
        </mxCell>
        <mxCell id="WkCDZKJzOO0LiTBJhFqM-212" value="PK" style="shape=partialRectangle;connectable=0;fillColor=none;top=0;left=0;bottom=0;right=0;fontStyle=1;overflow=hidden;whiteSpace=wrap;html=1;" vertex="1" parent="WkCDZKJzOO0LiTBJhFqM-211">
          <mxGeometry width="30" height="30" as="geometry">
            <mxRectangle width="30" height="30" as="alternateBounds" />
          </mxGeometry>
        </mxCell>
        <mxCell id="WkCDZKJzOO0LiTBJhFqM-213" value="Id" style="shape=partialRectangle;connectable=0;fillColor=none;top=0;left=0;bottom=0;right=0;align=left;spacingLeft=6;fontStyle=5;overflow=hidden;whiteSpace=wrap;html=1;" vertex="1" parent="WkCDZKJzOO0LiTBJhFqM-211">
          <mxGeometry x="30" width="150" height="30" as="geometry">
            <mxRectangle width="150" height="30" as="alternateBounds" />
          </mxGeometry>
        </mxCell>
        <mxCell id="WkCDZKJzOO0LiTBJhFqM-214" value="" style="shape=tableRow;horizontal=0;startSize=0;swimlaneHead=0;swimlaneBody=0;fillColor=none;collapsible=0;dropTarget=0;points=[[0,0.5],[1,0.5]];portConstraint=eastwest;top=0;left=0;right=0;bottom=0;" vertex="1" parent="WkCDZKJzOO0LiTBJhFqM-210">
          <mxGeometry y="60" width="180" height="20" as="geometry" />
        </mxCell>
        <mxCell id="WkCDZKJzOO0LiTBJhFqM-215" value="FK" style="shape=partialRectangle;connectable=0;fillColor=none;top=0;left=0;bottom=0;right=0;editable=1;overflow=hidden;whiteSpace=wrap;html=1;" vertex="1" parent="WkCDZKJzOO0LiTBJhFqM-214">
          <mxGeometry width="30" height="20" as="geometry">
            <mxRectangle width="30" height="20" as="alternateBounds" />
          </mxGeometry>
        </mxCell>
        <mxCell id="WkCDZKJzOO0LiTBJhFqM-216" value="id_Shop" style="shape=partialRectangle;connectable=0;fillColor=none;top=0;left=0;bottom=0;right=0;align=left;spacingLeft=6;overflow=hidden;whiteSpace=wrap;html=1;" vertex="1" parent="WkCDZKJzOO0LiTBJhFqM-214">
          <mxGeometry x="30" width="150" height="20" as="geometry">
            <mxRectangle width="150" height="20" as="alternateBounds" />
          </mxGeometry>
        </mxCell>
        <mxCell id="WkCDZKJzOO0LiTBJhFqM-217" style="shape=tableRow;horizontal=0;startSize=0;swimlaneHead=0;swimlaneBody=0;fillColor=none;collapsible=0;dropTarget=0;points=[[0,0.5],[1,0.5]];portConstraint=eastwest;top=0;left=0;right=0;bottom=0;" vertex="1" parent="WkCDZKJzOO0LiTBJhFqM-210">
          <mxGeometry y="80" width="180" height="40" as="geometry" />
        </mxCell>
        <mxCell id="WkCDZKJzOO0LiTBJhFqM-218" value="FK" style="shape=partialRectangle;connectable=0;fillColor=none;top=0;left=0;bottom=0;right=0;editable=1;overflow=hidden;whiteSpace=wrap;html=1;" vertex="1" parent="WkCDZKJzOO0LiTBJhFqM-217">
          <mxGeometry width="30" height="40" as="geometry">
            <mxRectangle width="30" height="40" as="alternateBounds" />
          </mxGeometry>
        </mxCell>
        <mxCell id="WkCDZKJzOO0LiTBJhFqM-219" value="id_Payment_type" style="shape=partialRectangle;connectable=0;fillColor=none;top=0;left=0;bottom=0;right=0;align=left;spacingLeft=6;overflow=hidden;whiteSpace=wrap;html=1;" vertex="1" parent="WkCDZKJzOO0LiTBJhFqM-217">
          <mxGeometry x="30" width="150" height="40" as="geometry">
            <mxRectangle width="150" height="40" as="alternateBounds" />
          </mxGeometry>
        </mxCell>
        <mxCell id="WkCDZKJzOO0LiTBJhFqM-220" value="" style="edgeStyle=entityRelationEdgeStyle;fontSize=12;html=1;endArrow=ERmandOne;startArrow=ERmandOne;rounded=0;entryX=0;entryY=0.5;entryDx=0;entryDy=0;exitX=1;exitY=0.5;exitDx=0;exitDy=0;" edge="1" parent="1" source="WkCDZKJzOO0LiTBJhFqM-103" target="WkCDZKJzOO0LiTBJhFqM-8">
          <mxGeometry width="100" height="100" relative="1" as="geometry">
            <mxPoint x="1030" y="900" as="sourcePoint" />
            <mxPoint x="1130" y="800" as="targetPoint" />
          </mxGeometry>
        </mxCell>
        <mxCell id="WkCDZKJzOO0LiTBJhFqM-221" value="" style="edgeStyle=entityRelationEdgeStyle;fontSize=12;html=1;endArrow=ERmandOne;startArrow=ERmandOne;rounded=0;entryX=1;entryY=0.5;entryDx=0;entryDy=0;exitX=0;exitY=0.5;exitDx=0;exitDy=0;" edge="1" parent="1" source="WkCDZKJzOO0LiTBJhFqM-87" target="WkCDZKJzOO0LiTBJhFqM-67">
          <mxGeometry width="100" height="100" relative="1" as="geometry">
            <mxPoint x="870" y="1035" as="sourcePoint" />
            <mxPoint x="810" y="705" as="targetPoint" />
          </mxGeometry>
        </mxCell>
        <mxCell id="WkCDZKJzOO0LiTBJhFqM-224" value="" style="edgeStyle=entityRelationEdgeStyle;fontSize=12;html=1;endArrow=ERmandOne;startArrow=ERmandOne;rounded=0;entryX=0;entryY=0.5;entryDx=0;entryDy=0;exitX=1;exitY=0.5;exitDx=0;exitDy=0;" edge="1" parent="1" source="WkCDZKJzOO0LiTBJhFqM-214" target="WkCDZKJzOO0LiTBJhFqM-8">
          <mxGeometry width="100" height="100" relative="1" as="geometry">
            <mxPoint x="765" y="860" as="sourcePoint" />
            <mxPoint x="959" y="710" as="targetPoint" />
          </mxGeometry>
        </mxCell>
        <mxCell id="WkCDZKJzOO0LiTBJhFqM-241" style="edgeStyle=orthogonalEdgeStyle;rounded=0;orthogonalLoop=1;jettySize=auto;html=1;exitX=0;exitY=0.5;exitDx=0;exitDy=0;entryX=0;entryY=0.5;entryDx=0;entryDy=0;startArrow=ERmandOne;startFill=0;endArrow=ERmandOne;endFill=0;" edge="1" parent="1" source="WkCDZKJzOO0LiTBJhFqM-217" target="WkCDZKJzOO0LiTBJhFqM-67">
          <mxGeometry relative="1" as="geometry" />
        </mxCell>
      </root>
    </mxGraphModel>
  </diagram>
</mxfile>
